<svg width="25" height="25" viewBox="0 0 25 25" fill="none" xmlns="http://www.w3.org/2000/svg">
<path d="M12.5 0C9.10522 0 8.67952 0.0144019 7.34625 0.0752097C6.01577 0.135906 5.10712 0.347245 4.312 0.656197C3.49001 0.975643 2.79292 1.40308 2.09802 2.09798C1.40308 2.79288 0.975643 3.49005 0.656234 4.31204C0.347208 5.10712 0.135943 6.01577 0.0751725 7.34625C0.0143647 8.67952 0 9.10522 0 12.5C0 15.8948 0.0143647 16.3205 0.0751725 17.6537C0.135943 18.9842 0.347208 19.8929 0.656234 20.688C0.97568 21.5099 1.40312 22.207 2.09802 22.902C2.79296 23.5969 3.49001 24.0244 4.312 24.3438C5.10712 24.6528 6.01577 24.8641 7.34625 24.9248C8.67952 24.9856 9.10522 25 12.5 25C15.8948 25 16.3205 24.9856 17.6537 24.9248C18.9842 24.8641 19.8929 24.6528 20.688 24.3438C21.5099 24.0244 22.207 23.5969 22.902 22.902C23.5969 22.207 24.0244 21.5099 24.3438 20.688C24.6528 19.8929 24.8641 18.9842 24.9248 17.6537C24.9856 16.3205 25 15.8948 25 12.5C25 9.10522 24.9856 8.67952 24.9248 7.34625C24.8641 6.01577 24.6528 5.10712 24.3438 4.31204C24.0244 3.49005 23.5969 2.79288 22.902 2.09798C22.207 1.40308 21.5099 0.975643 20.688 0.656197C19.8929 0.347245 18.9842 0.135906 17.6537 0.0752097C16.3205 0.0144019 15.8948 0 12.5 0ZM12.5 2.25224C15.8376 2.25224 16.233 2.265 17.5511 2.32514C18.7698 2.3807 19.4317 2.58433 19.8721 2.75552C20.4556 2.9823 20.872 3.25315 21.3094 3.69056C21.7469 4.12798 22.0177 4.5444 22.2445 5.12785C22.4157 5.56831 22.6193 6.2302 22.6749 7.44893C22.735 8.76701 22.7478 9.16238 22.7478 12.5C22.7478 15.8376 22.735 16.233 22.6749 17.5511C22.6193 18.7698 22.4157 19.4317 22.2445 19.8721C22.0177 20.4556 21.7469 20.872 21.3094 21.3094C20.872 21.7469 20.4556 22.0177 19.8722 22.2445C19.4317 22.4157 18.7698 22.6193 17.5511 22.6749C16.2332 22.735 15.8379 22.7478 12.5 22.7478C9.16212 22.7478 8.76686 22.735 7.44893 22.6748C6.23016 22.6193 5.56831 22.4157 5.12788 22.2445C4.54436 22.0177 4.12798 21.7469 3.6906 21.3094C3.25318 20.872 2.9823 20.4556 2.75552 19.8722C2.58433 19.4317 2.38074 18.7698 2.32514 17.5511C2.265 16.233 2.25224 15.8376 2.25224 12.5C2.25224 9.16238 2.265 8.76701 2.32514 7.44893C2.38074 6.23016 2.58433 5.56831 2.75552 5.12788C2.9823 4.54436 3.25318 4.12798 3.69056 3.6906C4.12798 3.25315 4.5444 2.9823 5.12785 2.75552C5.56831 2.58433 6.2302 2.3807 7.44893 2.32514C8.76701 2.265 9.16238 2.25224 12.5 2.25224" fill="#BF3538"/>
<path d="M12.5 16.6667C10.1988 16.6667 8.33329 14.8012 8.33329 12.5C8.33329 10.1988 10.1988 8.33333 12.5 8.33333C14.8012 8.33333 16.6666 10.1988 16.6666 12.5C16.6666 14.8012 14.8012 16.6667 12.5 16.6667ZM12.5 6.08109C8.95488 6.08109 6.08105 8.95492 6.08105 12.5C6.08105 16.0451 8.95488 18.9189 12.5 18.9189C16.0451 18.9189 18.9189 16.0451 18.9189 12.5C18.9189 8.95492 16.0451 6.08109 12.5 6.08109ZM20.6725 5.82748C20.6725 6.65594 20.0009 7.32747 19.1725 7.32747C18.3441 7.32747 17.6725 6.65594 17.6725 5.82748C17.6725 4.99906 18.3441 4.32745 19.1725 4.32745C20.0009 4.32745 20.6725 4.99906 20.6725 5.82748Z" fill="#BF3538"/>
</svg>
