<svg width="16" height="16" viewBox="0 0 16 16" fill="none" xmlns="http://www.w3.org/2000/svg">
<path d="M10.5 8C10.5 7.32292 10.2526 6.73698 9.75781 6.24219C9.26302 5.7474 8.67708 5.5 8 5.5V3.82031C9.14583 3.82031 10.1224 4.23698 10.9297 5.07031C11.763 5.8776 12.1797 6.85417 12.1797 8H10.5ZM13.8203 8C13.8203 6.38542 13.2474 5.01823 12.1016 3.89844C10.9818 2.7526 9.61458 2.17969 8 2.17969V0.5C10.0833 0.5 11.8542 1.22917 13.3125 2.6875C14.7708 4.14583 15.5 5.91667 15.5 8H13.8203ZM14.6797 10.9297C14.9141 10.9297 15.1094 11.0078 15.2656 11.1641C15.4219 11.3203 15.5 11.5156 15.5 11.75V14.6797C15.5 14.9141 15.4219 15.1094 15.2656 15.2656C15.1094 15.4219 14.9141 15.5 14.6797 15.5C10.7734 15.5 7.42708 14.1198 4.64062 11.3594C1.88021 8.57292 0.5 5.22656 0.5 1.32031C0.5 1.08594 0.578125 0.890625 0.734375 0.734375C0.890625 0.578125 1.08594 0.5 1.32031 0.5H4.25C4.48438 0.5 4.67969 0.578125 4.83594 0.734375C4.99219 0.890625 5.07031 1.08594 5.07031 1.32031V1.35938C5.07031 2.42708 5.22656 3.40365 5.53906 4.28906C5.59115 4.39323 5.61719 4.48438 5.61719 4.5625C5.61719 4.82292 5.52604 5.01823 5.34375 5.14844L3.50781 6.98438C4.02865 7.97396 4.82292 9.01562 5.89062 10.1094C6.98438 11.1771 8.02604 11.9714 9.01562 12.4922L10.8516 10.6562C11.0339 10.474 11.2292 10.3828 11.4375 10.3828C11.5156 10.3828 11.6068 10.4089 11.7109 10.4609C12.6484 10.7734 13.638 10.9297 14.6797 10.9297Z" fill="#BF3538"/>
</svg>
