<svg width="50" height="50" viewBox="0 0 50 50" fill="none" xmlns="http://www.w3.org/2000/svg">
<g clip-path="url(#clip0)">
<path d="M42.75 7.18542C38 2.59375 31.75 0 25.0937 0C5.98958 0 -6.00625 20.6979 3.53333 37.1625L0 50L13.1979 46.5583C18.9479 49.6646 23.6583 49.3896 25.1062 49.5729C47.2583 49.5729 58.2854 22.7729 42.7187 7.26667L42.75 7.18542Z" fill="#ECEFF1"/>
<path d="M25.1398 45.3145L25.1273 45.3125H25.094C18.4648 45.3125 14.2294 42.1729 13.8127 41.9916L6.00024 44.0229L8.09399 36.4291L7.59608 35.6479C5.53358 32.3645 4.43774 28.5833 4.43774 24.6895C4.43774 6.37079 26.8232 -2.78963 39.7773 10.1583C52.7002 22.9708 43.6273 45.3145 25.1398 45.3145Z" fill="#4CAF50"/>
<path d="M36.473 29.8063L36.4542 29.9625C35.8271 29.65 32.773 28.1563 32.2042 27.95C30.9271 27.4771 31.2875 27.875 28.8355 30.6834C28.4709 31.0896 28.1084 31.1209 27.4896 30.8396C26.8646 30.5271 24.8584 29.8709 22.4834 27.7459C20.6334 26.0896 19.3917 24.0584 19.025 23.4334C18.4146 22.3792 19.6917 22.2292 20.8542 20.0292C21.0625 19.5917 20.9563 19.2479 20.8021 18.9375C20.6459 18.625 19.4021 15.5625 18.8813 14.3417C18.3813 13.125 17.8667 13.2792 17.4813 13.2792C16.2813 13.175 15.4042 13.1917 14.6313 13.9959C11.2688 17.6917 12.1167 21.5042 14.9938 25.5584C20.648 32.9584 23.6605 34.3209 29.1688 36.2125C30.6563 36.6855 32.0125 36.6188 33.0855 36.4646C34.2813 36.275 36.7667 34.9625 37.2855 33.4938C37.8167 32.025 37.8167 30.8063 37.6605 30.525C37.5063 30.2438 37.098 30.0875 36.473 29.8063V29.8063Z" fill="#FAFAFA"/>
</g>
<defs>
<clipPath id="clip0">
<rect width="50" height="50" fill="white"/>
</clipPath>
</defs>
</svg>
